<svg id="Capa_1" enable-background="new 0 0 512 512" height="512" viewBox="0 0 512 512" width="512" xmlns="http://www.w3.org/2000/svg" xmlns:xlink="http://www.w3.org/1999/xlink"><linearGradient id="SVGID_1_" gradientUnits="userSpaceOnUse" x1="256" x2="256" y1="466" y2="46"><stop offset="0" stop-color="#5558ff"/><stop offset="1" stop-color="#00c0ff"/></linearGradient><g><g><g><path d="m316 376h120c8.284 0 15-6.716 15-15s-6.716-15-15-15h-120c-8.284 0-15 6.716-15 15s6.716 15 15 15zm0-60h120c8.284 0 15-6.716 15-15s-6.716-15-15-15h-120c-8.284 0-15 6.716-15 15s6.716 15 15 15zm0-60h120c8.284 0 15-6.716 15-15s-6.716-15-15-15h-120c-8.284 0-15 6.716-15 15s6.716 15 15 15zm-240 60h16.509c1.949 9.562 5.731 18.46 10.948 26.33l-11.704 11.704c-5.858 5.858-5.858 15.355 0 21.213 5.857 5.857 15.355 5.858 21.213 0l11.704-11.704c7.869 5.218 16.768 9 26.33 10.948v16.509c0 8.284 6.716 15 15 15s15-6.716 15-15v-16.509c9.561-1.949 18.46-5.731 26.33-10.948l11.704 11.704c5.857 5.857 15.355 5.858 21.213 0s5.858-15.355 0-21.213l-11.704-11.704c5.218-7.869 9-16.768 10.948-26.33h16.509c8.284 0 15-6.716 15-15s-6.716-15-15-15h-16.509c-1.949-9.562-5.731-18.46-10.948-26.33l11.704-11.704c5.858-5.858 5.858-15.355 0-21.213-5.857-5.858-15.355-5.858-21.213 0l-11.704 11.704c-7.869-5.218-16.768-9-26.33-10.948v-16.509c0-8.284-6.716-15-15-15s-15 6.716-15 15v16.509c-9.561 1.949-18.46 5.731-26.33 10.948l-11.704-11.704c-5.857-5.858-15.355-5.858-21.213 0s-5.858 15.355 0 21.213l11.704 11.704c-5.218 7.869-9 16.768-10.948 26.33h-16.509c-8.284 0-15 6.716-15 15s6.716 15 15 15zm90-60c24.813 0 45 20.187 45 45s-20.187 45-45 45-45-20.187-45-45 20.187-45 45-45zm331-210h-482c-8.284 0-15 6.716-15 15v390c0 8.284 6.716 15 15 15h482c8.284 0 15-6.716 15-15v-390c0-8.284-6.716-15-15-15zm-15 390h-452v-270h452zm0-300h-452v-60h271v15c0 8.284 6.716 15 15 15s15-6.716 15-15v-15h30v15c0 8.284 6.716 15 15 15s15-6.716 15-15v-15h30v15c0 8.284 6.716 15 15 15s15-6.716 15-15v-15h31zm-316 180c8.284 0 15-6.716 15-15s-6.716-15-15-15-15 6.716-15 15 6.716 15 15 15z" fill="url(#SVGID_1_)"/></g></g></g></svg>