<svg id="Capa_1" enable-background="new 0 0 504.5 504.5" height="512" viewBox="0 0 504.5 504.5" width="512" xmlns="http://www.w3.org/2000/svg"><g><path d="m372.25 127.5-120 377c82.843 0 150-67.157 150-150v-197z" fill="#48459d"/><path d="m372.25 354.5v-227l-270 30v197c0 82.843 67.157 150 150 150 66.274 0 120-67.157 120-150z" fill="#6461ac"/><path d="m312.25 67.5 60 120c0-16.569 13.431-30 30-30 0-49.706-40.294-90-90-90z" fill="#2c2c2f"/><path d="m312.25 67.5h-52.5l-7.5 7.5-7.5-7.5h-52.5c-49.706 0-90 40.294-90 90 16.569 0 30 13.431 30 30v167c0 66.274 53.726 120 120 120s120-53.726 120-120v-197c0-49.706-26.863-90-60-90z" fill="#424247"/><path d="m244.75 67.5v210c0 4.142 3.358 7.5 7.5 7.5s7.5-3.358 7.5-7.5v-210z" fill="#2c2c2f"/><path d="m213.745 7.769c-2.071-3.587-6.659-4.816-10.245-2.745-3.587 2.071-4.816 6.658-2.745 10.245l15 25.981c2.071 3.587 6.659 4.816 10.245 2.745 3.587-2.071 4.816-6.658 2.745-10.245z" fill="#eded51"/><path d="m301 5.024c-3.587-2.072-8.174-.842-10.245 2.745l-15 25.981c-2.071 3.587-.842 8.174 2.745 10.245 3.587 2.072 8.174.842 10.245-2.745l15-25.981c2.071-3.587.842-8.174-2.745-10.245z" fill="#ecc04b"/><path d="m252.25 0c-4.142 0-7.5 3.358-7.5 7.5v30c0 4.142 3.358 7.5 7.5 7.5s7.5-3.358 7.5-7.5v-30c0-4.142-3.358-7.5-7.5-7.5z" fill="#eded51"/><path d="m252.25 127.5c-12.426 0-22.5 10.074-22.5 22.5v45c0 12.426 10.074 22.5 22.5 22.5s22.5-10.074 22.5-22.5v-45c0-12.426-10.074-22.5-22.5-22.5z" fill="#6461ac"/></g></svg>